<?xml version="1.0" encoding="UTF-8"?>
<svg id="Layer_1" data-name="Layer 1" xmlns="http://www.w3.org/2000/svg" viewBox="0 0 240 60">
  <defs>
    <style>
      .cls-1 {
        fill: #eee;
      }
    </style>
  </defs>
  <path class="cls-1" d="M8.05,7.76c4.17-.06,8.84-.11,13.15-.17,.07,.77,.07,1.59,0,2.36l-7.92,.17c-.5,0-.5,.27-.5,.44l-.14,40.31,8.63,.17c0,.71,0,1.65-.07,2.42-4.24,0-8.98-.05-13.15-.11V7.76Z"/>
  <path class="cls-1" d="M34.86,46.31h-4.97L24.04,12.49h5.91l2.54,17.57,.12,1.1h.47l.18-1.1,2.72-17.57h4.61l2.72,17.57,.18,1.1h.47l.12-1.1,2.54-17.57h5.92l-5.86,33.81h-4.97l-2.96-16.01-.36-1.98h-.24l-.35,1.98-2.96,16.01Z"/>
  <path class="cls-1" d="M53.84,46.31l6.56-33.81h7.81l6.56,33.81h-6.21l-1.18-6.9h-6.15l-1.18,6.9h-6.21Zm10.82-22.82l-.18-.87h-.35l-.18,.87-1.83,10.67h4.38l-1.83-10.67Z"/>
  <path class="cls-1" d="M74.19,17.6v-5.11h18.45v5.11h-6.03v28.71h-6.39V17.6h-6.03Z"/>
  <path class="cls-1" d="M111.74,34.71v4.65c-.06,1.38-.41,2.62-1.06,3.68-.53,.92-1.36,1.79-2.54,2.48-1.18,.74-2.78,1.15-4.91,1.15s-3.79-.41-4.97-1.15c-1.18-.69-1.95-1.56-2.48-2.48-.65-1.06-1.01-2.3-1.06-3.68V19.44c.06-1.33,.41-2.58,1.06-3.63,.53-.92,1.3-1.84,2.48-2.53,1.18-.69,2.84-1.15,4.97-1.15s3.73,.46,4.91,1.15c1.18,.69,2.01,1.61,2.54,2.53,.65,1.06,1,2.3,1.06,3.63v4.65h-5.97v-4.65c0-.92-.3-1.56-.95-2.12-.3-.23-.83-.37-1.48-.37-1.12,0-1.66,.64-1.95,1.24-.18,.37-.24,.78-.29,1.24v19.92c.06,.97,.41,1.61,1,2.12,.3,.23,.71,.37,1.24,.37,1.36,0,1.89-.55,2.19-1.24,.18-.32,.24-.74,.24-1.24v-4.65h5.97Z"/>
  <path class="cls-1" d="M126.94,31.58h-4.97v14.72h-6.39V12.49h6.39v13.99h4.97V12.49h6.39V46.31h-6.39v-14.72Z"/>
  <path class="cls-1" d="M147.28,12.49h6.39l-7.98,29.21h8.46l-1.24,4.6h-14.84l9.23-33.81Z"/>
  <path class="cls-1" d="M164.73,12.49h6.39l-9.23,33.81h-6.39l9.23-33.81Z"/>
  <path class="cls-1" d="M183.95,21.55c.29-1.1,.59-2.35,.41-3.31-.18-.92-.65-1.56-1.66-1.56-1.66,.05-2.54,1.38-3.08,3.36-.3,1.15-.06,2.35,.59,3.63,.65,1.29,1.42,2.62,2.31,4.05,1.12,1.7,2.01,3.45,2.72,5.15,.65,1.7,.95,3.45,.41,5.29-.65,2.25-1.6,4.32-3.43,5.93-1.83,1.61-4.2,2.58-7.75,2.58-4.08,0-6.09-1.2-6.86-3.04-.89-1.84-.41-4.23,.24-6.81l6.39-.46c-.41,1.43-.71,2.85-.53,3.91,.18,1.1,.65,1.84,2.01,1.84,1.89,0,2.96-1.56,3.61-3.73,.3-1.1,0-2.39-.65-3.73-.18-.32-.36-.69-.53-1.01-.18-.32-.35-.69-.53-1.01-.41-.69-.89-1.43-1.36-2.21-.47-.78-.95-1.56-1.42-2.44-1.01-1.75-1.54-3.5-1.71-5.24-.18-.87,0-1.79,.24-2.71,.47-1.84,1.54-3.82,3.37-5.34,1.71-1.47,4.08-2.53,7.1-2.58,3.96-.05,5.8,1.2,6.57,2.99,.71,1.84,.47,4.09-.06,5.98l-6.39,.46Z"/>
  <path class="cls-1" d="M192.46,17.6l1.42-5.11h18.45l-1.42,5.11h-6.03l-7.81,28.71h-6.39l7.81-28.71h-6.03Z"/>
  <path class="cls-1" d="M227.46,53.34c-4.1,.06-8.77,.11-13.01,.11-.07-.77-.07-1.7-.07-2.42l8.56-.17V10.56c0-.17,0-.44-.5-.44l-7.92-.17c-.07-.77-.07-1.59,0-2.36,4.31,.06,9.05,.11,13.15,.17l-.21,45.59Z"/>
</svg>