<?xml version="1.0" encoding="UTF-8"?>
<svg id="Layer_1" data-name="Layer 1" xmlns="http://www.w3.org/2000/svg" viewBox="0 0 100 60">
  <defs>
    <style>
      .cls-1 {
        fill: #eee;
      }
    </style>
  </defs>
  <path class="cls-1" d="M10.57,6.64c4.17-.06,8.84-.11,13.15-.17,.07,.77,.07,1.59,0,2.36l-7.92,.17c-.5,0-.5,.27-.5,.44l-.14,40.31,8.63,.17c0,.71,0,1.65-.07,2.42-4.24,0-8.98-.05-13.15-.11V6.64Z"/>
  <path class="cls-1" d="M37.37,45.19h-4.97L26.55,11.38h5.91l2.54,17.57,.12,1.1h.47l.18-1.1,2.72-17.57h4.61l2.72,17.57,.18,1.1h.47l.12-1.1,2.54-17.57h5.91l-5.86,33.81h-4.97l-2.96-16.01-.35-1.98h-.24l-.35,1.98-2.96,16.01Z"/>
  <path class="cls-1" d="M67.35,11.38h6.39l-7.98,29.21h8.46l-1.24,4.6h-14.84l9.23-33.81Z"/>
  <path class="cls-1" d="M88.34,52.23c-4.1,.06-8.77,.11-13.01,.11-.07-.77-.07-1.7-.07-2.42l8.56-.17V9.45c0-.17,0-.44-.5-.44l-7.92-.17c-.07-.77-.07-1.59,0-2.36,4.31,.06,9.05,.11,13.15,.17l-.21,45.59Z"/>
</svg>